<svg width="75" height="75" viewBox="0 0 75 75" fill="none" xmlns="http://www.w3.org/2000/svg">
<path d="M37.5 6.22498C31.8428 6.22602 26.2921 7.7627 21.4398 10.6711C16.5875 13.5795 12.6157 17.7506 9.94813 22.7393C7.28054 27.728 6.0172 33.3473 6.29287 38.9978C6.56854 44.6482 8.37288 50.1179 11.5134 54.8232C14.654 59.5286 19.0129 63.2932 24.1253 65.7155C29.2376 68.1377 34.9116 69.1268 40.542 68.5771C46.1724 68.0275 51.548 65.9597 56.0954 62.5945C60.6427 59.2292 64.1913 54.6926 66.3625 49.4687C67.4281 46.9062 64.875 44.3312 62.3063 45.375C57.9037 47.1583 53.0153 47.3424 48.4911 45.8951C43.9669 44.4478 40.093 41.4607 37.5429 37.4532C34.9929 33.4456 33.9279 28.6712 34.5333 23.9598C35.1386 19.2485 37.3759 14.8983 40.8563 11.6656L41.0969 11.4156C42.8188 9.44685 41.45 6.24998 38.7281 6.24998H37.8969L37.6844 6.23123L37.5 6.22498Z" fill="#F9CD00"/>
</svg>
