<svg width="75" height="75" viewBox="0 0 75 75" fill="none" xmlns="http://www.w3.org/2000/svg">
<path d="M34.375 12.5V3.125H40.625V12.5H34.375ZM34.375 71.875V62.5H40.625V71.875H34.375ZM62.5 40.625V34.375H71.875V40.625H62.5ZM3.125 40.625V34.375H12.5V40.625H3.125ZM58.4375 20.9375L54.0625 16.5625L59.5312 10.9375L64.0625 15.4687L58.4375 20.9375ZM15.4687 64.0625L10.9375 59.5312L16.5625 54.0625L20.9375 58.4375L15.4687 64.0625ZM59.5312 64.0625L54.0625 58.4375L58.4375 54.0625L64.0625 59.5312L59.5312 64.0625ZM16.5625 20.9375L10.9375 15.4687L15.4687 10.9375L20.9375 16.5625L16.5625 20.9375ZM37.5 56.25C32.2917 56.25 27.8646 54.4271 24.2188 50.7812C20.5729 47.1354 18.75 42.7083 18.75 37.5C18.75 32.2917 20.5729 27.8646 24.2188 24.2188C27.8646 20.5729 32.2917 18.75 37.5 18.75C42.7083 18.75 47.1354 20.5729 50.7812 24.2188C54.4271 27.8646 56.25 32.2917 56.25 37.5C56.25 42.7083 54.4271 47.1354 50.7812 50.7812C47.1354 54.4271 42.7083 56.25 37.5 56.25Z" fill="#F9CD00"/>
</svg>
