<svg width="75" height="75" viewBox="0 0 75 75" fill="none" xmlns="http://www.w3.org/2000/svg">
<path d="M37.5001 53.9844L24.5313 61.7969C23.9584 62.1615 23.3594 62.3177 22.7344 62.2656C22.1094 62.2135 21.5626 62.0052 21.0938 61.6406C20.6251 61.276 20.2605 60.8208 20.0001 60.275C19.7396 59.7292 19.6876 59.1167 19.8438 58.4375L23.2813 43.6719L11.7969 33.75C11.2761 33.2813 10.9511 32.7469 10.8219 32.1469C10.6928 31.5469 10.7313 30.9615 10.9376 30.3906C11.1438 29.8198 11.4563 29.351 11.8751 28.9844C12.2938 28.6177 12.8667 28.3833 13.5938 28.2813L28.7501 26.9531L34.6094 13.0469C34.8698 12.4219 35.274 11.9531 35.8219 11.6406C36.3698 11.3281 36.9292 11.1719 37.5001 11.1719C38.0709 11.1719 38.6303 11.3281 39.1782 11.6406C39.7261 11.9531 40.1303 12.4219 40.3907 13.0469L46.2501 26.9531L61.4063 28.2813C62.1355 28.3854 62.7084 28.6198 63.1251 28.9844C63.5417 29.349 63.8542 29.8177 64.0625 30.3906C64.2709 30.9635 64.3105 31.55 64.1813 32.15C64.0521 32.75 63.7261 33.2833 63.2032 33.75L51.7188 43.6719L55.1563 58.4375C55.3126 59.1146 55.2605 59.7271 55.0001 60.275C54.7396 60.8229 54.3751 61.2781 53.9063 61.6406C53.4376 62.0031 52.8907 62.2115 52.2657 62.2656C51.6407 62.3198 51.0417 62.1635 50.4688 61.7969L37.5001 53.9844Z" fill="#F9CD00"/>
</svg>
